{"title":"Se7en(1995)MPEG-4[DaScubaDude]","uid":14859706,"size":1417323230,"categoryP":"video","categoryS":"movies","magnet":"?xt=urn:btih:36e216967ea03791f6739e81ddbf8dfec2b143b5&amp;dn=Se7en%281995%29MPEG-4%5BDaScubaDude%5D&amp;tr=udp%3A%2F%2Ftracker.leechers-paradise.org%3A6969&amp;tr=udp%3A%2F%2Fzer0day.ch%3A1337&amp;tr=udp%3A%2F%2Fopen.demonii.com%3A1337&amp;tr=udp%3A%2F%2Ftracker.coppersurfer.tk%3A6969&amp;tr=udp%3A%2F%2Fexodus.desync.com%3A6969","seeders":1,"leechers":1,"uploader":"dascuba","files":1,"time":1465509673,"description":"Se7en (1995)\r\nR | 2h 7min | Crime, Drama, Mystery | 22 September 1995 (USA)\r\nTwo detectives, a rookie and a veteran, hunt a serial killer who uses the seven deadly sins as his modus operandi.\r\nDirector: David Fincher\r\nWriter: Andrew Kevin Walker\r\nStars: Morgan Freeman, Brad Pitt, Kevin Spacey | \r\n\r\n\r\nGeneral\r\nComplete name                            : Se7enSEVEN_Title1.mp4\r\nFormat                                   : MPEG-4\r\nFormat profile                           : Base Media\r\nCodec ID                                 : isom (isom/iso2/avc1/mp41)\r\nFile size                                : 1.32 GiB\r\nDuration                                 : 2h 6mn\r\nOverall bit rate                         : 1 490 Kbps\r\nMovie name                               : SEVEN\r\nGenre                                    : Thriller\r\nWriting application                      : Lavf54.6.100\r\n\r\nVideo\r\nID                                       : 1\r\nFormat                                   : AVC\r\nFormat/Info                              : Advanced Video Codec\r\nFormat profile                           :   \r\nFormat settings, CABAC                   : No\r\nFormat settings, ReFrames                : 6 frames\r\nCodec ID                                 : avc1\r\nCodec ID/Info                            : Advanced Video Coding\r\nDuration                                 : 2h 6mn\r\nBit rate                                 : 1 210 Kbps\r\nWidth                                    : 720 pixels\r\nHeight                                   : 404 pixels\r\nDisplay aspect ratio                     : 16:9\r\nFrame rate mode                          : Constant\r\nFrame rate                               : 29.970 (30000/1001) fps\r\nColor space                              : YUV\r\nChroma subsampling                       : 4:2:0\r\nBit depth                                : 8 bits\r\nScan type                                : Progressive\r\nBits/(Pixel*Frame)                       : 0.139\r\nStream size                              : 1.07 GiB (81%)\r\n\r\nAudio\r\nID                                       : 2\r\nFormat                                   : AAC\r\nFormat/Info                              : Advanced Audio Codec\r\nFormat profile                           : LC\r\nCodec ID                                 : 40\r\nDuration                                 : 2h 6mn\r\nBit rate mode                            : Constant\r\nBit rate                                 : 274 Kbps\r\nChannel(s)                               : 2 channels\r\nChannel(s)_Original                      : 6 channels\r\nChannel positions                        : Front: L C R, Side: L R, LFE\r\nSampling rate                            : 44.1 KHz\r\nFrame rate                               : 43.066 fps (1024 spf)\r\nCompression mode                         : Lossy\r\nStream size                              : 248 MiB (18%)\r\nDefault                                  : Yes\r\nAlternate group                          : 1","torrent":{"xt":"urn:btih:36e216967ea03791f6739e81ddbf8dfec2b143b5","amp;dn":"Se7en%281995%29MPEG-4%5BDaScubaDude%5D","amp;tr":["udp%3A%2F%2Ftracker.leechers-paradise.org%3A6969","udp%3A%2F%2Fzer0day.ch%3A1337","udp%3A%2F%2Fopen.demonii.com%3A1337","udp%3A%2F%2Ftracker.coppersurfer.tk%3A6969","udp%3A%2F%2Fexodus.desync.com%3A6969"],"infoHash":"36e216967ea03791f6739e81ddbf8dfec2b143b5","infoHashBuffer":{"type":"Buffer","data":[54,226,22,150,126,160,55,145,246,115,158,129,221,191,141,254,194,177,67,181]},"announce":[],"urlList":[]}}